<?xml version="1.0" encoding="utf-8"?>
<!-- Generator: Adobe Illustrator 27.5.0, SVG Export Plug-In . SVG Version: 6.00 Build 0)  -->
<svg version="1.1" id="background" xmlns="http://www.w3.org/2000/svg" xmlns:xlink="http://www.w3.org/1999/xlink" x="0px" y="0px"
	 viewBox="0 0 2200 2200" style="enable-background:new 0 0 2200 2200;" xml:space="preserve">
<g>
	<rect style="fill:#FFFFFF;" width="2200" height="2200"/>
	<path d="M2200,8.758V0H0v2200h8.763v-512.294h20.201V2200h8.763v-512.294h512.591V2200h8.763v-512.294h20.201V2200h8.763v-512.294
		h512.591V2200h8.763v-512.294h20.201V2200h8.763v-512.294h512.592V2200h8.763v-512.294h20.202V2200h8.763v-512.294H2200v-8.758
		h-511.314v-20.19H2200V1650h-511.314v-512.294H2200v-8.758h-511.314v-20.19H2200V1100h-511.314V587.706H2200v-8.758h-511.314
		v-20.19H2200V550h-511.314V37.706H2200v-8.758h-511.314V8.758H2200z M28.965,1678.948H8.763v-20.19h20.201V1678.948z M28.965,1650
		H8.763v-512.294h20.201V1650z M28.965,1128.948H8.763v-20.19h20.201V1128.948z M28.965,1100H8.763V587.706h20.201V1100z
		 M28.965,578.948H8.763v-20.19h20.201V578.948z M28.965,550H8.763V37.706h20.201V550z M28.965,28.948H8.763V8.758h20.201V28.948z
		 M550.319,1678.948H37.728v-20.19h512.591V1678.948z M550.319,1650H37.728v-512.294h512.591V1650z M550.319,1128.948H37.728v-20.19
		h512.591V1128.948z M550.319,1100H37.728V587.706h512.591V1100z M550.319,578.948H37.728v-20.19h512.591V578.948z M550.319,550
		H37.728V37.706h512.591V550z M550.319,28.948H37.728V8.758h512.591V28.948z M579.284,1678.948h-20.201v-20.19h20.201V1678.948z
		 M579.284,1650h-20.201v-512.294h20.201V1650z M579.284,1128.948h-20.201v-20.19h20.201V1128.948z M579.284,1100h-20.201V587.706
		h20.201V1100z M579.284,578.948h-20.201v-20.19h20.201V578.948z M579.284,550h-20.201V37.706h20.201V550z M579.284,28.948h-20.201
		V8.758h20.201V28.948z M1100.639,1678.948H588.047v-20.19h512.591V1678.948z M1100.639,1650H588.047v-512.294h512.591V1650z
		 M1100.639,1128.948H588.047v-20.19h512.591V1128.948z M1100.639,1100H588.047V587.706h512.591V1100z M1100.639,578.948H588.047
		v-20.19h512.591V578.948z M1100.639,550H588.047V37.706h512.591V550z M1100.639,28.948H588.047V8.758h512.591V28.948z
		 M1129.604,1678.948h-20.201v-20.19h20.201V1678.948z M1129.604,1650h-20.201v-512.294h20.201V1650z M1129.604,1128.948h-20.201
		v-20.19h20.201V1128.948z M1129.604,1100h-20.201V587.706h20.201V1100z M1129.604,578.948h-20.201v-20.19h20.201V578.948z
		 M1129.604,550h-20.201V37.706h20.201V550z M1129.604,28.948h-20.201V8.758h20.201V28.948z M1650.958,1678.948h-512.592v-20.19
		h512.592V1678.948z M1650.958,1650h-512.592v-512.294h512.592V1650z M1650.958,1128.948h-512.592v-20.19h512.592V1128.948z
		 M1650.958,1100h-512.592V587.706h512.592V1100z M1650.958,578.948h-512.592v-20.19h512.592V578.948z M1650.958,550h-512.592
		V37.706h512.592V550z M1650.958,28.948h-512.592V8.758h512.592V28.948z M1679.923,1678.948h-20.202v-20.19h20.202V1678.948z
		 M1679.923,1650h-20.202v-512.294h20.202V1650z M1679.923,1128.948h-20.202v-20.19h20.202V1128.948z M1679.923,1100h-20.202
		V587.706h20.202V1100z M1679.923,578.948h-20.202v-20.19h20.202V578.948z M1679.923,550h-20.202V37.706h20.202V550z
		 M1679.923,28.948h-20.202V8.758h20.202V28.948z"/>
</g>
</svg>
